PathFileType	4	(X/Y/Z)	./resultDataOpenSim/trcMotMarkerGrf/sub09/qtm-04-01.trc
DataRate	CameraRate	NumFrames	NumMarkers	Units	OrigDataRate	OrigDataStartFrame	OrigNumFrames
250.000000	250.000000	13	24	m	250.000000	1	506
Frame#	Time	L.Toe.Tip			R.Toe.Tip			L.Ankle.Lat			R.Ankle.Lat			L.Ankle.Med			R.Ankle.Med			L.Heel			R.Heel			L.Knee.Lat			R.Knee.Lat			L.Knee.Med			R.Knee.Med			L.Thigh.Upper			R.Thigh.Upper			L.ASIS			R.ASIS			V.Sacral			L.Acromium			R.Acromium			C7			L.Elbow			R.Elbow			L.Wrist.Lat			R.Wrist.Lat
		X1	Y1	Z1	X2	Y2	Z2	X3	Y3	Z3	X4	Y4	Z4	X5	Y5	Z5	X6	Y6	Z6	X7	Y7	Z7	X8	Y8	Z8	X9	Y9	Z9	X10	Y10	Z10	X11	Y11	Z11	X12	Y12	Z12	X13	Y13	Z13	X14	Y14	Z14	X15	Y15	Z15	X16	Y16	Z16	X17	Y17	Z17	X18	Y18	Z18	X19	Y19	Z19	X20	Y20	Z20	X21	Y21	Z21	X22	Y22	Z22	X23	Y23	Z23	X24	Y24	Z24

1	0	-1.4861965	0.036207319	-0.0072688078	-0.89903671	0.09409348	0.11767797	-1.6341503	0.080992546	-0.04248691	-1.0490143	0.072092358	0.1472049	-1.6120137	0.095211076	0.05290096	-1.0434887	0.11123646	0.056465923	NaN	NaN	NaN	-1.0999091	0.03209102	0.093598735	-1.4826464	0.47158439	-0.10135803	-1.1323848	0.52470245	0.18873665	-1.4843032	0.47246698	0.024625171	-1.1353111	0.50378485	0.061886611	-1.3675405	0.87736503	-0.14232386	-1.3379528	0.87430248	0.22773872	-1.2617707	0.94807006	-0.088480787	-1.2569708	0.95475517	0.15176428	-1.420317	1.0177574	0.040331104	-1.2172023	1.4035066	-0.12132489	-1.2641084	1.4130186	0.20434147	-1.3035593	1.4626757	0.038620755	-1.3148573	1.0400766	-0.20370862	-1.4352352	1.1008951	0.28646108	-1.0692179	0.92572392	-0.15875935	-1.3590139	0.84288031	0.32441127
2	0.004	-1.4861429	0.036185496	-0.0073190329	-0.88248827	0.098383985	0.11864853	-1.6339223	0.081904815	-0.04245128	-1.0320063	0.072720803	0.1484112	-1.6111712	0.096134499	0.052764532	-1.0275497	0.11190164	0.057491671	NaN	NaN	NaN	-1.0817798	0.031259437	0.095341156	-1.4797028	0.47161013	-0.10143266	-1.1261779	0.52316966	0.18939556	-1.4811859	0.47254053	0.024705887	-1.128884	0.50195524	0.062498247	-1.3616936	0.8762982	-0.1419462	-1.3315302	0.87277467	0.22813431	-1.2556456	0.94682108	-0.088249222	-1.2506858	0.95338184	0.15195802	-1.4139963	1.0162185	0.040717718	-1.2113014	1.4023247	-0.12083415	-1.2583448	1.411594	0.20474595	-1.2978055	1.4613728	0.039054108	-1.3078672	1.0384789	-0.2034834	-1.4290149	1.0993022	0.28678847	-1.0613008	0.92635909	-0.15781028	-1.3534607	0.84139155	0.32512771
3	0.008	-1.4860858	0.036157942	-0.0073694559	-0.86629071	0.10269793	0.11958845	-1.6336415	0.082847484	-0.042446762	-1.0152726	0.073454631	0.14959037	-1.6102548	0.097102216	0.052538511	-1.0119054	0.11260797	0.058499814	NaN	NaN	NaN	-1.0639088	0.03054597	0.097137585	-1.4766637	0.47164983	-0.10151456	-1.1199701	0.52161558	0.19004334	-1.4780952	0.4725839	0.024790063	-1.1224962	0.50012263	0.063038206	-1.3558222	0.87521898	-0.14156422	-1.3251275	0.87122655	0.22848625	-1.249514	0.94556089	-0.088044171	-1.2443376	0.95202458	0.15215221	-1.4076657	1.0146303	0.0411538	-1.2053454	1.4011485	-0.12033797	-1.2525984	1.4101659	0.20518506	-1.2920153	1.4600533	0.039486339	-1.3008568	1.036881	-0.20320058	-1.4231418	1.0974208	0.28671268	-1.0534158	0.92693964	-0.15687937	-1.3478241	0.83988502	0.32586353
4	0.012	-1.4860234	0.036125528	-0.0074206489	-0.85064729	0.10705178	0.12050026	-1.6332899	0.083827515	-0.042502275	-0.99884381	0.074419767	0.15075997	-1.6092578	0.098131901	0.052205295	-0.99671228	0.11338377	0.059487037	NaN	NaN	NaN	-1.0465118	0.030030939	0.098897055	-1.4734584	0.47168488	-0.10160964	-1.1137047	0.52003862	0.19068494	-1.4749374	0.47258764	0.024874478	-1.1161521	0.49827576	0.063517123	-1.3499021	0.87411876	-0.14118159	-1.3186888	0.8696497	0.22878997	-1.2433599	0.94430037	-0.08786769	-1.2378759	0.9506913	0.15235521	-1.4012982	1.0129834	0.04166931	-1.1993096	1.3999728	-0.11982926	-1.2468508	1.4087303	0.20565588	-1.2861651	1.4587091	0.039919227	-1.2938315	1.035289	-0.2028758	-1.4175426	1.095281	0.28631	-1.0455805	0.92744065	-0.15597279	-1.3420617	0.83836366	0.32662438
5	0.016	-1.4859543	0.036095597	-0.0074737499	-0.83560314	0.1114171	0.1213939	-1.6328848	0.084840619	-0.042639448	-0.98250144	0.075760252	0.15200471	-1.6082325	0.09919092	0.051811519	-0.98200581	0.11424359	0.060464434	NaN	NaN	NaN	-1.029741	0.02973271	0.10049297	-1.4700583	0.47167798	-0.10171211	-1.1073019	0.51846348	0.1913432	-1.4715811	0.47255204	0.024947601	-1.1098332	0.49641395	0.063982612	-1.3439334	0.87299684	-0.14080938	-1.3121479	0.86804556	0.2290663	-1.2371769	0.94305591	-0.087702481	-1.2313019	0.94937357	0.15257336	-1.3948744	1.0113052	0.042274584	-1.1932251	1.3987873	-0.11930864	-1.2410869	1.4072854	0.20613626	-1.2802636	1.4573537	0.040361666	-1.2868207	1.0337166	-0.202561	-1.4118698	1.0931568	0.28596562	-1.0378078	0.92786083	-0.15508817	-1.336178	0.83683868	0.32739874
6	0.02	-1.4858785	0.036072792	-0.0075296209	-0.82112031	0.11571329	0.1222599	-1.6324352	0.085890793	-0.042861268	-0.96603364	0.077535914	0.15339115	-1.607231	0.10023056	0.051407028	-0.96771886	0.1152005	0.06144434	NaN	NaN	NaN	-1.0136532	0.029625266	0.10187289	-1.4664445	0.47159417	-0.10180926	-1.1007134	0.51692032	0.19204043	-1.4679493	0.47247189	0.025003119	-1.1035058	0.49454892	0.064458775	-1.3379276	0.87185372	-0.14045254	-1.3054711	0.86641343	0.22934015	-1.2309637	0.94181945	-0.087540063	-1.2246597	0.94805688	0.15280447	-1.3883902	1.009625	0.042969535	-1.1871389	1.3975861	-0.11878741	-1.2352961	1.4058305	0.20661591	-1.2743277	1.4560061	0.040824532	-1.2798348	1.0321693	-0.20226426	-1.405987	1.0912269	0.28578918	-1.0300921	0.92820438	-0.15422043	-1.3301986	0.83530842	0.32817293
7	0.024	-1.4857954	0.036055028	-0.0075875008	-0.80719479	0.11981709	0.12307108	-1.6319291	0.086983187	-0.04315255	-0.94971381	0.079533175	0.154821	-1.6062611	0.10123854	0.051008811	-0.95379963	0.11624856	0.062412756	NaN	NaN	NaN	-0.99826716	0.0296676	0.10301189	-1.4626071	0.47140803	-0.10189747	-1.0939575	0.51543465	0.19277554	-1.4640156	0.47234007	0.025046871	-1.0971377	0.49270031	0.064957372	-1.3318976	0.87069016	-0.14010435	-1.2986516	0.8647522	0.22963024	-1.2247227	0.94057252	-0.087392591	-1.2179921	0.94673625	0.15304381	-1.381883	1.0079519	0.043708157	-1.1810635	1.39637	-0.11827462	-1.2294594	1.4043696	0.20710211	-1.2683677	1.4546651	0.041308821	-1.2728686	1.0306432	-0.20194563	-1.4001561	1.0894504	0.28539649	-1.0224249	0.92847665	-0.15336575	-1.3241471	0.83376501	0.32894241
8	0.028	-1.4857005	0.036040289	-0.0076464121	-0.79387499	0.12359347	0.12380412	-1.631357	0.088120374	-0.043491804	-0.93427095	0.081324505	0.15606433	-1.6052982	0.10223331	0.05061167	-0.9403348	0.11733079	0.063316671	NaN	NaN	NaN	-0.98358281	0.029810338	0.10388657	-1.4585495	0.47111306	-0.10198458	-1.0870799	0.51403487	0.19352954	-1.4597731	0.47215146	0.025087702	-1.090693	0.49090348	0.065490154	-1.3258512	0.86951067	-0.13975296	-1.291689	0.86306697	0.22994315	-1.218452	0.93931389	-0.087272339	-1.2113041	0.94541093	0.15329193	-1.3754199	1.0062749	0.044396134	-1.1749704	1.3951416	-0.11776897	-1.2235574	1.4029068	0.20760335	-1.2623862	1.4533154	0.041806545	-1.2659174	1.0291342	-0.2015744	-1.3947079	1.087712	0.28434164	-1.0148105	0.92868394	-0.15252461	-1.3180169	0.83220858	0.32970625
9	0.032	-1.4855887	0.036030079	-0.0077069208	-0.78121733	0.12694684	0.12446599	-1.6307201	0.089304638	-0.043859928	-0.92020623	0.082625977	0.15696684	-1.6043268	0.10322696	0.050207032	-0.92746757	0.11836275	0.064087128	NaN	NaN	NaN	-0.9695431	0.030001064	0.10452337	-1.4542526	0.47072529	-0.10206364	-1.0800719	0.51275367	0.1942975	-1.4552768	0.47188962	0.025140386	-1.0841248	0.48921246	0.066055148	-1.3197863	0.86832252	-0.13938493	-1.2845859	0.86136943	0.23027291	-1.2121418	0.9380542	-0.087174671	-1.2045776	0.94408079	0.15355364	-1.3690313	1.0045846	0.04498181	-1.1688305	1.3939041	-0.11726609	-1.2175885	1.4014417	0.20811512	-1.2563818	1.451956	0.042313814	-1.2589817	1.0276414	-0.20115855	-1.38959	1.0859592	0.2827517	-1.0072593	0.92882737	-0.15170311	-1.311788	0.83064964	0.33045792
10	0.036	-1.4854573	0.036025315	-0.0077694009	-0.76924877	0.12985523	0.12509455	-1.6300223	0.090537881	-0.044250886	-0.90743822	0.083458978	0.15754546	-1.6033554	0.10422399	0.049782759	-0.91523171	0.11929377	0.064684805	NaN	NaN	NaN	-0.9560513	0.030214363	0.10497199	-1.4496654	0.47027831	-0.10208154	-1.0728745	0.51160463	0.19509823	-1.4506416	0.47152626	0.025222656	-1.0773847	0.48768649	0.066637063	-1.3136893	0.86713232	-0.13898191	-1.2773523	0.85967155	0.23060478	-1.2057827	0.93679769	-0.087089573	-1.1977998	0.94274735	0.15382718	-1.3626865	1.0028813	0.045479029	-1.1626449	1.3926625	-0.11676003	-1.2115721	1.3999723	0.20862756	-1.2503523	1.4506075	0.042839932	-1.2520658	1.0261685	-0.20072635	-1.3843604	1.0842113	0.28132696	-0.99977724	0.92890132	-0.15090631	-1.3054606	0.82909885	0.33119129
11	0.04	-1.4853066	0.036023594	-0.0078324384	-0.75797342	0.13235175	0.1257286	-1.6292556	0.091827007	-0.044677377	-0.89564345	0.083964094	0.15789938	-1.6023846	0.10524051	0.049321313	-0.90359903	0.12010989	0.065130095	NaN	NaN	NaN	-0.94310617	0.030442978	0.10520613	-1.4447333	0.46980857	-0.10197117	-1.065471	0.5105601	0.19594375	-1.4458936	0.47105438	0.025325099	-1.0704306	0.48637218	0.067217823	-1.3075406	0.86594552	-0.1385248	-1.2700052	0.85798032	0.23092831	-1.1993738	0.93554479	-0.087013812	-1.1909723	0.94141222	0.15410202	-1.356337	1.0011705	0.045907072	-1.15644	1.3914231	-0.11624128	-1.2055205	1.3985016	0.20913682	-1.244296	1.449288	0.043400262	-1.2451772	1.0247214	-0.20029546	-1.3786719	1.0825014	0.28060099	-0.99236742	0.92889972	-0.15013053	-1.2990518	0.82756035	0.33190951
12	0.044	-1.4851387	0.036021197	-0.007895054	-0.74740256	0.13446365	0.12638856	-1.6284041	0.093178676	-0.045161451	-0.88462669	0.084216686	0.15810738	-1.6013883	0.10629594	0.048812781	-0.89259875	0.12078832	0.065482567	NaN	NaN	NaN	-0.93091017	0.030606213	0.10517166	-1.4394528	0.46931956	-0.10174171	-1.0578948	0.50957902	0.19681894	-1.4409194	0.47050334	0.025410359	-1.0632282	0.48528373	0.067786799	-1.3013228	0.86476831	-0.1380067	-1.262573	0.85629452	0.23125126	-1.1929182	0.93429866	-0.086940968	-1.1841071	0.94007733	0.15437211	-1.3499432	0.99947468	0.04630934	-1.1502398	1.3901903	-0.11570432	-1.1994191	1.3970398	0.20964727	-1.2382146	1.4479896	0.043995513	-1.2383215	1.023303	-0.19985768	-1.3725555	1.0808403	0.28051805	-0.98503078	0.92882121	-0.14936642	-1.2925762	0.82603446	0.33262012
13	0.048	-1.4849572	0.036017722	-0.0079597912	-0.73755179	0.13615789	0.12709893	-1.6274663	0.094589558	-0.045720194	-0.87438129	0.084205149	0.15820353	-1.6003363	0.1074002	0.048260671	-0.88228068	0.12127658	0.065788276	NaN	NaN	NaN	-0.91973296	0.030547333	0.10492072	-1.4339166	0.46876923	-0.10149927	-1.0501753	0.50864899	0.19769239	-1.4356134	0.46990406	0.025457024	-1.0557564	0.48439741	0.068346952	-1.2950238	0.86360472	-0.13744142	-1.2550876	0.85460883	0.23160097	-1.1864088	0.93305876	-0.086853455	-1.1772221	0.93874642	0.15464469	-1.3434826	0.99783172	0.046770983	-1.1440401	1.3889683	-0.11515159	-1.1932507	1.3955997	0.21016564	-1.2321218	1.4466812	0.044589918	-1.2315001	1.0219156	-0.19939469	-1.3662183	1.0792242	0.28075559	-0.97776546	0.92867124	-0.14860923	-1.2860492	0.82452242	0.33332923
